<svg xmlns="http://www.w3.org/2000/svg" viewBox="0 0 160 160" role="img">
  <defs>
    <linearGradient id="bg" x1="20" y1="18" x2="138" y2="142" gradientUnits="userSpaceOnUse">
      <stop offset="0" stop-color="#fff7df"/>
      <stop offset=".55" stop-color="#e9f5f2"/>
      <stop offset="1" stop-color="#f8eef0"/>
    </linearGradient>
  </defs>
  <rect width="160" height="160" rx="30" fill="url(#bg)"/>
  <path d="M35 121c21 10 69 10 90-1" fill="none" stroke="#d6e1df" stroke-width="10" stroke-linecap="round"/>
  <circle cx="80" cy="80" r="52" fill="#ffffff" opacity=".9"/>
  <path d="M47 67h66M54 67v38M76 67v38M98 67v38M44 111h72M51 58l29-18 29 18" fill="none" stroke="#123f4a" stroke-width="6" stroke-linecap="round" stroke-linejoin="round"/>
  <path d="M80 55v50M58 82h44" fill="none" stroke="#d97730" stroke-width="5" stroke-linecap="round"/>
  <path d="M58 82l-13 21h26L58 82Z" fill="#bfe7df" stroke="#0f7180" stroke-width="4" stroke-linejoin="round"/>
  <path d="M102 82l-13 21h26L102 82Z" fill="#ffe0a8" stroke="#b45f2a" stroke-width="4" stroke-linejoin="round"/>
  <circle cx="47" cy="42" r="7" fill="#e85d75"/>
  <circle cx="118" cy="44" r="5" fill="#2f8ab8"/>
</svg>
