<svg xmlns="http://www.w3.org/2000/svg" viewBox="0 0 160 160" role="img">
  <defs>
    <linearGradient id="bg" x1="22" y1="18" x2="134" y2="142" gradientUnits="userSpaceOnUse">
      <stop offset="0" stop-color="#fff3cc"/>
      <stop offset=".5" stop-color="#f4f8f4"/>
      <stop offset="1" stop-color="#ffe4e0"/>
    </linearGradient>
  </defs>
  <rect width="160" height="160" rx="30" fill="url(#bg)"/>
  <path d="M33 122c25 9 70 10 95-1" fill="none" stroke="#e0d8c8" stroke-width="10" stroke-linecap="round"/>
  <circle cx="79" cy="83" r="52" fill="#ffffff" opacity=".9"/>
  <path d="M45 67h66M52 74v38M73 74v38M94 74v38M43 118h73M49 58l31-19 31 19" fill="none" stroke="#123f4a" stroke-width="6" stroke-linecap="round" stroke-linejoin="round"/>
  <path d="M112 38v44m0 0 15-15m-15 15-15-15" fill="none" stroke="#c52828" stroke-width="8" stroke-linecap="round" stroke-linejoin="round"/>
  <path d="M78 74l-10 14 10 8-8 16" fill="none" stroke="#f0a22e" stroke-width="6" stroke-linecap="round" stroke-linejoin="round"/>
  <path d="M53 45c7-7 18-9 27-5" fill="none" stroke="#3b9b89" stroke-width="5" stroke-linecap="round"/>
  <circle cx="121" cy="35" r="6" fill="#e85d75"/>
</svg>
