<svg xmlns="http://www.w3.org/2000/svg" viewBox="0 0 160 160" role="img">
  <defs>
    <linearGradient id="bg" x1="20" y1="18" x2="138" y2="142" gradientUnits="userSpaceOnUse">
      <stop offset="0" stop-color="#eef8df"/>
      <stop offset=".55" stop-color="#e8f6f9"/>
      <stop offset="1" stop-color="#fff0d4"/>
    </linearGradient>
  </defs>
  <rect width="160" height="160" rx="30" fill="url(#bg)"/>
  <circle cx="80" cy="80" r="52" fill="#ffffff" opacity=".9"/>
  <path d="M53 65h54M58 65v42M80 65v42M102 65v42M50 113h60M56 57l24-16 24 16" fill="none" stroke="#123f4a" stroke-width="6" stroke-linecap="round" stroke-linejoin="round"/>
  <path d="M38 91h29M93 91h29M52 91l28 24 28-24" fill="none" stroke="#d97730" stroke-width="4" stroke-linecap="round" stroke-linejoin="round"/>
  <circle cx="38" cy="91" r="11" fill="#bfe7df" stroke="#0f7180" stroke-width="4"/>
  <circle cx="122" cy="91" r="11" fill="#d4ebff" stroke="#2f8ab8" stroke-width="4"/>
  <circle cx="80" cy="116" r="11" fill="#ffd7a3" stroke="#b45f2a" stroke-width="4"/>
  <path d="M42 43c8-7 20-10 33-8M118 43c-8-7-20-10-33-8" fill="none" stroke="#8aac4a" stroke-width="4" stroke-linecap="round"/>
</svg>
