<svg xmlns="http://www.w3.org/2000/svg" viewBox="0 0 160 160" role="img">
  <defs>
    <linearGradient id="bg" x1="22" y1="20" x2="138" y2="140" gradientUnits="userSpaceOnUse">
      <stop offset="0" stop-color="#e5f8f7"/>
      <stop offset=".48" stop-color="#fff3cf"/>
      <stop offset="1" stop-color="#ffe5e9"/>
    </linearGradient>
  </defs>
  <rect width="160" height="160" rx="30" fill="url(#bg)"/>
  <circle cx="80" cy="80" r="52" fill="#ffffff" opacity=".88"/>
  <path d="M43 49h42a12 12 0 0 1 12 12v14a12 12 0 0 1-12 12H64l-19 14 5-14h-7a12 12 0 0 1-12-12V61a12 12 0 0 1 12-12Z" fill="#bfe7df" stroke="#0f7180" stroke-width="5" stroke-linejoin="round"/>
  <path d="M78 73h39a12 12 0 0 1 12 12v14a12 12 0 0 1-12 12h-6l5 14-19-14H78a12 12 0 0 1-12-12V85a12 12 0 0 1 12-12Z" fill="#ffd7a3" stroke="#b45f2a" stroke-width="5" stroke-linejoin="round"/>
  <path d="M58 67h23M88 92h23" fill="none" stroke="#123f4a" stroke-width="5" stroke-linecap="round"/>
  <path d="M55 34 42 47m0 0h17M42 47V30M105 34l13 13m0 0h-17m17 0V30" fill="none" stroke="#c52828" stroke-width="5" stroke-linecap="round" stroke-linejoin="round"/>
  <circle cx="41" cy="122" r="5" fill="#3b9b89"/>
  <circle cx="119" cy="122" r="5" fill="#e85d75"/>
</svg>
